<svg xmlns="http://www.w3.org/2000/svg" viewBox="0 0 192 192" width="192" height="192"><rect width="192" height="192" rx="38" fill="#14110e"/><g transform="translate(29,29)"><line x1="67" y1="67" x2="78.79179569487084" y2="22.992419354270048" stroke="#8a7e6c" stroke-width="4.69" stroke-linecap="round"/><line x1="67" y1="67" x2="111.00758064572994" y2="55.20820430512916" stroke="#8a7e6c" stroke-width="4.69" stroke-linecap="round"/><line x1="67" y1="67" x2="99.2157849508591" y2="99.2157849508591" stroke="#8a7e6c" stroke-width="4.69" stroke-linecap="round"/><line x1="67" y1="67" x2="55.20820430512915" y2="111.00758064572994" stroke="#8a7e6c" stroke-width="4.69" stroke-linecap="round"/><line x1="67" y1="67" x2="22.992419354270048" y2="78.79179569487086" stroke="#8a7e6c" stroke-width="4.69" stroke-linecap="round"/><line x1="67" y1="67" x2="34.78421504914088" y2="34.7842150491409" stroke="#8a7e6c" stroke-width="4.69" stroke-linecap="round"/><line x1="78.79179569487084" y1="22.992419354270048" x2="99.2157849508591" y2="99.2157849508591" stroke="#6b5f50" stroke-width="3.35" stroke-linecap="round"/><line x1="111.00758064572994" y1="55.20820430512916" x2="55.20820430512915" y2="111.00758064572994" stroke="#6b5f50" stroke-width="3.35" stroke-linecap="round"/><line x1="99.2157849508591" y1="99.2157849508591" x2="22.992419354270048" y2="78.79179569487086" stroke="#6b5f50" stroke-width="3.35" stroke-linecap="round"/><line x1="55.20820430512915" y1="111.00758064572994" x2="34.78421504914088" y2="34.7842150491409" stroke="#6b5f50" stroke-width="3.35" stroke-linecap="round"/><line x1="22.992419354270048" y1="78.79179569487086" x2="78.79179569487084" y2="22.992419354270048" stroke="#6b5f50" stroke-width="3.35" stroke-linecap="round"/><line x1="34.78421504914088" y1="34.7842150491409" x2="111.00758064572994" y2="55.20820430512916" stroke="#6b5f50" stroke-width="3.35" stroke-linecap="round"/><circle cx="67" cy="67" r="23.584000000000003" fill="#e8b44a" opacity=".12"/><circle cx="67" cy="67" r="10.72" fill="#e8b44a"/><circle cx="78.79179569487084" cy="22.992419354270048" r="7.37" fill="#e06530"/><circle cx="111.00758064572994" cy="55.20820430512916" r="7.37" fill="#e8b44a"/><circle cx="99.2157849508591" cy="99.2157849508591" r="7.37" fill="#4ca8a8"/><circle cx="55.20820430512915" cy="111.00758064572994" r="7.37" fill="#e06530"/><circle cx="22.992419354270048" cy="78.79179569487086" r="7.37" fill="#4ca8a8"/><circle cx="34.78421504914088" cy="34.7842150491409" r="7.37" fill="#e8b44a"/></g></svg>