<svg xmlns="http://www.w3.org/2000/svg" viewBox="0 0 512 512" width="512" height="512"><line x1="256" y1="256" x2="301.0552193714468" y2="87.85163215959898" stroke="#8a7e6c" stroke-width="17.92" stroke-linecap="round"/><line x1="256" y1="256" x2="424.148367840401" y2="210.9447806285532" stroke="#8a7e6c" stroke-width="17.92" stroke-linecap="round"/><line x1="256" y1="256" x2="379.0931484689542" y2="379.0931484689542" stroke="#8a7e6c" stroke-width="17.92" stroke-linecap="round"/><line x1="256" y1="256" x2="210.94478062855316" y2="424.148367840401" stroke="#8a7e6c" stroke-width="17.92" stroke-linecap="round"/><line x1="256" y1="256" x2="87.851632159599" y2="301.05521937144687" stroke="#8a7e6c" stroke-width="17.92" stroke-linecap="round"/><line x1="256" y1="256" x2="132.9068515310458" y2="132.9068515310458" stroke="#8a7e6c" stroke-width="17.92" stroke-linecap="round"/><line x1="301.0552193714468" y1="87.85163215959898" x2="379.0931484689542" y2="379.0931484689542" stroke="#6b5f50" stroke-width="12.8" stroke-linecap="round"/><line x1="424.148367840401" y1="210.9447806285532" x2="210.94478062855316" y2="424.148367840401" stroke="#6b5f50" stroke-width="12.8" stroke-linecap="round"/><line x1="379.0931484689542" y1="379.0931484689542" x2="87.851632159599" y2="301.05521937144687" stroke="#6b5f50" stroke-width="12.8" stroke-linecap="round"/><line x1="210.94478062855316" y1="424.148367840401" x2="132.9068515310458" y2="132.9068515310458" stroke="#6b5f50" stroke-width="12.8" stroke-linecap="round"/><line x1="87.851632159599" y1="301.05521937144687" x2="301.0552193714468" y2="87.85163215959898" stroke="#6b5f50" stroke-width="12.8" stroke-linecap="round"/><line x1="132.9068515310458" y1="132.9068515310458" x2="424.148367840401" y2="210.9447806285532" stroke="#6b5f50" stroke-width="12.8" stroke-linecap="round"/><circle cx="256" cy="256" r="90.11200000000001" fill="#e8b44a" opacity=".12"/><circle cx="256" cy="256" r="40.96" fill="#e8b44a"/><circle cx="301.0552193714468" cy="87.85163215959898" r="28.16" fill="#e06530"/><circle cx="424.148367840401" cy="210.9447806285532" r="28.16" fill="#e8b44a"/><circle cx="379.0931484689542" cy="379.0931484689542" r="28.16" fill="#4ca8a8"/><circle cx="210.94478062855316" cy="424.148367840401" r="28.16" fill="#e06530"/><circle cx="87.851632159599" cy="301.05521937144687" r="28.16" fill="#4ca8a8"/><circle cx="132.9068515310458" cy="132.9068515310458" r="28.16" fill="#e8b44a"/></svg>